<?xml version="1.0" encoding="UTF-8" standalone="no"?>
<svg
   fill="none"
   height="24"
   viewBox="0 0 24 24"
   width="24"
   version="1.1"
   id="svg1"
   sodipodi:docname="arrows.svg"
   inkscape:version="1.3.2 (091e20e, 2023-11-25, custom)"
   xmlns:inkscape="http://www.inkscape.org/namespaces/inkscape"
   xmlns:sodipodi="http://sodipodi.sourceforge.net/DTD/sodipodi-0.dtd"
   xmlns="http://www.w3.org/2000/svg"
   xmlns:svg="http://www.w3.org/2000/svg">
  <defs
     id="defs1" />
  <sodipodi:namedview
     id="namedview1"
     pagecolor="#ffffff"
     bordercolor="#000000"
     borderopacity="0.25"
     inkscape:showpageshadow="2"
     inkscape:pageopacity="0.0"
     inkscape:pagecheckerboard="0"
     inkscape:deskcolor="#d1d1d1"
     inkscape:zoom="22.715805"
     inkscape:cx="14.087108"
     inkscape:cy="14.857497"
     inkscape:window-width="1920"
     inkscape:window-height="1009"
     inkscape:window-x="-8"
     inkscape:window-y="1072"
     inkscape:window-maximized="1"
     inkscape:current-layer="svg1" />
  <path
     id="path18"
     style="color:#000000;fill:#252525;stroke-linecap:round;-inkscape-stroke:none;fill-opacity:1"
     d="M 12 5 A 1 1 0 0 0 11 6 L 11 15.585938 L 8.7070312 13.292969 A 1 1 0 0 0 8 13 A 1 1 0 0 0 7.2929688 13.292969 A 1 1 0 0 0 7.2929688 14.707031 L 11.292969 18.707031 A 1 1 0 0 0 11.376953 18.773438 A 1 1 0 0 0 11.439453 18.822266 A 1 1 0 0 0 11.681641 18.945312 A 1 1 0 0 0 11.730469 18.957031 A 1 1 0 0 0 11.962891 18.994141 A 1 1 0 0 0 12 19 A 1 1 0 0 0 12.037109 18.994141 A 1 1 0 0 0 12.269531 18.957031 A 1 1 0 0 0 12.318359 18.945312 A 1 1 0 0 0 12.560547 18.822266 A 1 1 0 0 0 12.623047 18.773438 A 1 1 0 0 0 12.707031 18.707031 L 16.707031 14.707031 A 1 1 0 0 0 16.707031 13.292969 A 1 1 0 0 0 16 13 A 1 1 0 0 0 15.292969 13.292969 L 13 15.585938 L 13 6 A 1 1 0 0 0 12 5 z " />
</svg>
