<?xml version="1.0" encoding="UTF-8" standalone="no"?>
<svg
   fill="none"
   height="24"
   viewBox="0 0 24 24"
   width="24"
   version="1.1"
   id="svg1"
   sodipodi:docname="arrow_light.svg"
   inkscape:version="1.3.2 (091e20e, 2023-11-25, custom)"
   xmlns:inkscape="http://www.inkscape.org/namespaces/inkscape"
   xmlns:sodipodi="http://sodipodi.sourceforge.net/DTD/sodipodi-0.dtd"
   xmlns="http://www.w3.org/2000/svg"
   xmlns:svg="http://www.w3.org/2000/svg">
  <defs
     id="defs1" />
  <sodipodi:namedview
     id="namedview1"
     pagecolor="#ffffff"
     bordercolor="#000000"
     borderopacity="0.25"
     inkscape:showpageshadow="2"
     inkscape:pageopacity="0.0"
     inkscape:pagecheckerboard="0"
     inkscape:deskcolor="#d1d1d1"
     inkscape:zoom="22.715805"
     inkscape:cx="14.109119"
     inkscape:cy="14.901519"
     inkscape:window-width="1920"
     inkscape:window-height="1009"
     inkscape:window-x="-8"
     inkscape:window-y="1072"
     inkscape:window-maximized="1"
     inkscape:current-layer="svg1" />
  <path
     id="path18"
     style="color:#000000;fill:#505050;fill-opacity:1;stroke-linecap:round;-inkscape-stroke:none"
     d="m 12,4.9999765 a 1,1 0 0 0 -1,1 V 15.585915 L 8.7070314,13.292946 a 1,1 0 0 0 -0.7070312,-0.292969 1,1 0 0 0 -0.7070312,0.292969 1,1 0 0 0 0,1.414062 l 4,4 a 1,1 0 0 0 0.08398,0.06641 1,1 0 0 0 0.0625,0.04883 1,1 0 0 0 0.242188,0.123045 1,1 0 0 0 0.04883,0.01172 1,1 0 0 0 0.232422,0.03711 1,1 0 0 0 0.03711,0.0059 1,1 0 0 0 0.03711,-0.0059 1,1 0 0 0 0.232422,-0.03711 1,1 0 0 0 0.04883,-0.01172 1,1 0 0 0 0.242188,-0.123045 1,1 0 0 0 0.0625,-0.04883 1,1 0 0 0 0.08398,-0.06641 l 4,-4 a 1,1 0 0 0 0,-1.414062 A 1,1 0 0 0 16,12.999977 1,1 0 0 0 15.292969,13.292946 L 13,15.585915 V 5.9999765 a 1,1 0 0 0 -1,-1 z" />
</svg>
